# xmcd
#
# Track frame offsets:
#	150
#	59766
#	93318
#	199429
#	209313
#	224357
#	252263
#	301093
#
# Disc length: 4435 seconds
#
# Revision: 0
# Processed by: cddbd v1.5.2PL0 Copyright (c) Steve Scherf et al.
# Submitted via: audiograbber 1.83.01
#
DISCID=78115108
DTITLE=Grateful Dead - 70-03-20 Capitol Theatre, Port Chester NY
DYEAR=1900
DGENRE=
TTITLE0=Viola Lee Blues
TTITLE1=High Time
TTITLE2=Turn On Your Lovelight
TTITLE3=Applause
TTITLE4=We Bid You Goodnight
TTITLE5=Not Fade Away
TTITLE6=In The Midnight Hour
TTITLE7=It's All Over Now Baby Blue
EXTD=
EXTT0=
EXTT1=
EXTT2=
EXTT3=
EXTT4=
EXTT5=
EXTT6=
EXTT7=
PLAYORDER=
